<svg width="193" height="39" viewBox="0 0 193 39" fill="none" xmlns="http://www.w3.org/2000/svg">
<path d="M9.70288 1.1767C12.5953 1.1767 14.8808 1.6308 16.5666 2.53898C18.2523 3.44716 19.0935 4.76686 19.0935 6.49454C19.0935 7.44884 18.916 8.26833 18.5576 8.95302C18.1991 9.6377 17.7448 10.2266 17.1948 10.7197C16.6411 11.2128 15.8142 11.8585 14.714 12.6638C15.9349 12.9618 17.1131 13.4904 18.2452 14.2496C19.3774 15.0088 20.3107 15.9914 21.0418 17.2012C21.7729 18.4073 22.1385 19.7696 22.1385 21.2915C22.1385 27.2515 17.7271 30.2315 8.90081 30.2315H0V30.1853C0.44717 29.9476 0.670755 29.5432 0.670755 28.9792V2.42546C0.670755 1.82946 0.44717 1.42858 0 1.21928V1.17316H9.70288V1.1767ZM11.9387 10.6736C12.4143 9.3468 12.6556 7.8781 12.6556 6.27104C12.6556 4.86974 12.2972 3.75935 11.5838 2.93986C10.8669 2.12036 9.79515 1.71239 8.36492 1.71239H6.84596V21.6924C7.05535 20.7984 7.42089 19.8157 7.94259 18.7408C8.46429 17.6694 9.3054 16.073 10.4695 13.9587C10.977 13.0931 11.4667 12.0004 11.9458 10.6736H11.9387ZM7.71191 20.6849C7.12988 21.9514 6.83886 23.1647 6.83886 24.3283V29.7383H7.82193C9.48994 29.7383 10.9308 29.263 12.1375 28.3087C13.3441 27.3544 14.2527 26.1269 14.8666 24.6192C15.4771 23.115 15.7823 21.586 15.7823 20.0392C15.7823 17.0593 15.1718 14.7959 13.9474 13.2456C12.3965 14.5263 11.0692 15.8105 9.96905 17.0912C9.04632 18.2229 8.29394 19.4219 7.71191 20.6884V20.6849Z" fill="#DDDFD0"/>
<path d="M29.2151 28.5996C27.1886 27.3331 25.5703 25.5664 24.3637 23.303C23.157 21.0397 22.5537 18.4747 22.5537 15.6154C22.5537 12.756 23.1499 10.2053 24.3424 7.97034C25.5348 5.73536 27.1532 4.00059 29.1938 2.76248C31.2345 1.52437 33.4632 0.907089 35.8801 0.907089C38.2969 0.907089 40.5221 1.52437 42.5663 2.76248C44.607 4.00059 46.2253 5.73536 47.4178 7.97034C48.6102 10.2053 49.2064 12.7525 49.2064 15.6154C49.2064 18.4783 48.6031 21.0397 47.3965 23.303C46.1898 25.5664 44.5715 27.3331 42.545 28.5996C40.5186 29.8661 38.2969 30.4975 35.8836 30.4975C33.4703 30.4975 31.2487 29.8661 29.2222 28.5996H29.2151ZM39.1167 28.2625C40.114 27.1592 40.9125 25.5274 41.5087 23.3669C42.105 21.2064 42.4031 18.6379 42.4031 15.6544C42.4031 12.6709 42.105 10.0315 41.5087 7.89939C40.9125 5.77083 40.1211 4.16732 39.138 3.0924C38.155 2.02103 37.0654 1.4818 35.873 1.4818C34.6805 1.4818 33.591 2.01748 32.6079 3.0924C31.6249 4.16378 30.8334 5.76729 30.2372 7.89939C29.641 10.0315 29.3429 12.6141 29.3429 15.6544C29.3429 18.6947 29.641 21.2064 30.2372 23.3669C30.8334 25.5274 31.632 27.1592 32.6292 28.2625C33.6265 29.3658 34.7089 29.9157 35.8694 29.9157C37.0299 29.9157 38.1124 29.3658 39.1096 28.2625H39.1167Z" fill="#DDDFD0"/>
<path d="M62.6038 28.9792C62.6038 29.6035 62.8274 30.008 63.2746 30.1853V30.2315H55.7614V30.1853C56.2086 29.9476 56.4321 29.5432 56.4321 28.9792V1.8472C54.9416 2.26581 53.5788 3.11369 52.3402 4.39437C51.1016 5.67505 49.9482 7.07634 48.8728 8.59471H48.6954L49.7246 1.17316H69.3114L70.3406 8.59471H70.1631C69.0913 7.07634 67.9343 5.67505 66.6958 4.39437C65.4572 3.11369 64.0944 2.26581 62.6038 1.8472V28.9792Z" fill="#DDDFD0"/>
<path d="M87.1698 27.326C87.7341 28.8763 88.199 29.8306 88.5574 30.1853V30.2315H81.2678V30.1428C81.2678 29.8164 81.2075 29.4581 81.0904 29.0714C80.9697 28.6847 80.8455 28.3193 80.7106 27.9752C80.5758 27.6346 80.48 27.3579 80.4196 27.1486L77.9141 20.355H72.3706C72.3102 22.7993 72.4593 25.0626 72.8177 27.1486C72.9065 27.624 73.1301 28.596 73.4885 30.0541L73.5346 30.2315H66.1102L66.1989 29.9618L76.8849 1.17671H77.5095L87.1698 27.326ZM77.7366 19.7696L74.1131 9.88959C73.1301 12.9583 72.5622 16.254 72.4132 19.7696H77.7331H77.7366Z" fill="#DDDFD0"/>
<path d="M88.7349 30.1392L89.4943 22.2281C89.8528 18.5634 90.119 15.6509 90.3 13.4904C90.4774 11.3299 90.5697 9.48871 90.5697 7.97034V4.70656L88.2451 1.17671H95.8009L108.904 19.727C108.755 17.6694 108.606 15.8992 108.456 14.4092C108.158 11.5782 107.704 9.15523 107.094 7.14375C106.483 5.13227 105.564 3.174 104.343 1.2654V1.17671H111.633V1.2654C110.888 3.44007 110.32 5.67505 109.933 7.97034C109.546 10.2656 109.351 12.4687 109.351 14.5866C109.351 17.148 109.461 20.3443 109.684 24.1757C109.908 28.0036 110.022 30.0257 110.022 30.2315H108.634L91.1056 5.37705V8.01291C91.1659 12.4829 91.5137 16.3568 92.1561 19.6348C92.7984 22.9128 93.998 26.4143 95.7547 30.1392V30.2279H88.7349V30.1392Z" fill="#DDDFD0"/>
<path d="M112.896 30.1853C113.343 29.9476 113.567 29.5432 113.567 28.9792V2.42546C113.567 1.82946 113.343 1.42858 112.896 1.21928V1.17316H120.409V1.21928C119.962 1.42858 119.739 1.82946 119.739 2.42546V28.9756C119.739 29.6 119.962 30.0044 120.409 30.1818V30.2279H112.896V30.1818V30.1853Z" fill="#DDDFD0"/>
<path d="M142.587 31.7498C143.928 31.7498 145.596 31.6753 147.594 31.5263L145.405 38.0965L128.458 28.7095L128.593 28.7557C126.478 27.5353 124.792 25.7757 123.54 23.4804C122.287 21.1851 121.662 18.5634 121.662 15.6118C121.662 12.6602 122.258 10.2018 123.451 7.96679C124.643 5.73181 126.262 3.99704 128.302 2.75893C130.343 1.52082 132.572 0.903542 134.989 0.903542C137.405 0.903542 139.631 1.52082 141.675 2.75893C143.715 3.99704 145.334 5.73181 146.526 7.96679C147.719 10.2018 148.315 12.7489 148.315 15.6118C148.315 18.4747 147.712 21.0361 146.505 23.2995C145.298 25.5628 143.68 27.3295 141.654 28.596C139.627 29.8625 137.405 30.494 134.992 30.494C133.949 30.494 133.008 30.3911 132.174 30.1818C135.393 31.2248 138.868 31.7463 142.594 31.7463L142.587 31.7498ZM131.72 3.09595C130.737 4.16732 129.945 5.77083 129.349 7.90293C128.753 10.035 128.455 12.6177 128.455 15.658C128.455 18.6982 128.753 21.2099 129.349 23.3704C129.945 25.5309 130.744 27.1628 131.741 28.2661C132.738 29.3694 133.821 29.9193 134.981 29.9193C136.142 29.9193 137.224 29.3694 138.222 28.2661C139.219 27.1628 140.017 25.5309 140.614 23.3704C141.21 21.2099 141.508 18.6415 141.508 15.658C141.508 12.6744 141.21 10.035 140.614 7.90293C140.017 5.77438 139.226 4.17087 138.243 3.09595C137.26 2.02458 136.17 1.48535 134.978 1.48535C133.785 1.48535 132.696 2.02103 131.713 3.09595H131.72Z" fill="#DDDFD0"/>
<path d="M153.078 28.039C150.931 26.4001 149.859 23.2995 149.859 18.7408V2.42546C149.859 1.82946 149.635 1.42858 149.188 1.21928V1.17316H156.701V1.21928C156.254 1.42858 156.03 1.82946 156.03 2.42546V19.947C156.03 23.2533 156.506 25.6409 157.461 27.0989C158.415 28.5605 159.98 29.2878 162.156 29.2878C164.601 29.2878 166.404 28.3406 167.568 26.4497C168.732 24.5589 169.311 21.9869 169.311 18.7408V8.41378C169.311 6.68611 169.169 5.32383 168.885 4.32342C168.601 3.32654 168.289 2.63122 167.944 2.24453C167.6 1.85784 167.192 1.51373 166.716 1.21573V1.16961H172.483V1.21573C172.008 1.51373 171.596 1.85784 171.255 2.24453C170.911 2.63122 170.599 3.32654 170.315 4.32342C170.031 5.32029 169.889 6.68611 169.889 8.41378V18.7408C169.889 26.5774 166.936 30.4975 161.034 30.4975C157.876 30.4975 155.221 29.678 153.074 28.039H153.078Z" fill="#DDDFD0"/>
<path d="M192.106 22.8099L193 30.1853C191.719 30.3946 189.856 30.4975 187.41 30.4975C184.341 30.4975 181.583 29.8732 179.138 28.6209C176.692 27.3686 174.769 25.6125 173.371 23.3456C171.969 21.0822 171.252 18.5031 171.224 15.6118C171.224 12.5716 171.923 9.9428 173.325 7.72201C174.726 5.50122 176.657 3.81256 179.116 2.64896C181.576 1.48535 184.341 0.907089 187.41 0.907089C189.646 0.907089 191.509 1.02771 193 1.2654L192.106 8.59471H191.928C191.808 8.38541 191.375 7.60494 190.633 6.24976C189.888 4.89458 188.993 3.79128 187.95 2.9434C186.906 2.09553 185.817 1.66982 184.685 1.66982C182.719 1.66982 181.203 2.61703 180.146 4.50789C179.088 6.39876 178.424 8.95657 178.155 12.1742H188.617V12.756H178.109C178.048 14.0083 178.02 14.9626 178.02 15.6154C178.02 19.908 178.563 23.3208 179.652 25.8502C180.742 28.3832 182.403 29.6497 184.639 29.6497C185.803 29.6497 186.835 29.2772 187.748 28.5322C188.656 27.7872 189.341 27.0635 189.806 26.3646C190.267 25.6657 190.977 24.4808 191.932 22.8099H192.109H192.106Z" fill="#DDDFD0"/>
</svg>
