<svg width="1360" height="263" viewBox="0 0 1360 263" fill="none" xmlns="http://www.w3.org/2000/svg">
<path d="M68.3726 1.92441C88.7544 1.92441 104.86 5.12423 116.739 11.5239C128.618 17.9235 134.545 27.2229 134.545 39.3972C134.545 46.1218 133.294 51.8965 130.768 56.7212C128.242 61.546 125.041 65.6957 121.165 69.1705C117.264 72.6453 111.437 77.195 103.684 82.8697C112.287 84.9696 120.59 88.6944 128.568 94.0441C136.545 99.3938 143.122 106.318 148.274 114.843C153.426 123.342 156.002 132.942 156.002 143.666C156.002 185.664 124.916 206.663 62.7207 206.663H0V206.338C3.15104 204.663 4.72656 201.813 4.72656 197.838V10.7239C4.72656 6.52415 3.15104 3.69931 0 2.2244V1.89941H68.3726V1.92441ZM84.1278 68.8455C87.4789 59.4961 89.1795 49.1467 89.1795 37.8223C89.1795 27.9479 86.6537 20.1234 81.627 14.3487C76.5753 8.57403 69.0228 5.69919 58.9445 5.69919H48.241V146.491C49.7164 140.191 52.2923 133.267 55.9685 125.692C59.6447 118.143 65.5717 106.893 73.7744 91.9942C77.3506 85.8945 80.8017 78.195 84.1778 68.8455H84.1278ZM54.343 139.391C50.2416 148.316 48.1909 156.865 48.1909 165.065V203.188H55.1182C66.8721 203.188 77.0255 199.838 85.5283 193.113C94.0311 186.389 100.433 177.739 104.76 167.115C109.061 156.515 111.212 145.741 111.212 134.842C111.212 113.843 106.91 97.8938 98.2825 86.9695C87.3539 95.9939 78.0008 105.043 70.2482 114.068C63.7461 122.042 58.4443 130.492 54.343 139.416V139.391Z" fill="#DDDFD0"/>
<path d="M205.868 195.166C191.588 186.242 180.185 173.792 171.682 157.843C163.179 141.894 158.928 123.82 158.928 103.671C158.928 83.5225 163.129 65.5485 171.532 49.7995C179.934 34.0504 191.338 21.8261 205.718 13.1016C220.098 4.37709 235.803 0.0273438 252.834 0.0273438C269.864 0.0273438 285.544 4.37709 299.949 13.1016C314.329 21.8261 325.733 34.0504 334.136 49.7995C342.538 65.5485 346.74 83.4975 346.74 103.671C346.74 123.845 342.488 141.894 333.985 157.843C325.483 173.792 314.079 186.242 299.799 195.166C285.519 204.09 269.864 208.54 252.859 208.54C235.853 208.54 220.198 204.09 205.918 195.166H205.868ZM275.641 192.791C282.668 185.017 288.295 173.517 292.497 158.293C296.698 143.069 298.799 124.97 298.799 103.946C298.799 82.9225 296.698 64.3236 292.497 49.2995C288.295 34.3004 282.718 23.001 275.791 15.4265C268.864 7.87689 261.186 4.07711 252.784 4.07711C244.381 4.07711 236.703 7.85189 229.776 15.4265C222.849 22.976 217.272 34.2754 213.07 49.2995C208.869 64.3236 206.768 82.5226 206.768 103.946C206.768 125.37 208.869 143.069 213.07 158.293C217.272 173.517 222.899 185.017 229.926 192.791C236.953 200.566 244.581 204.44 252.759 204.44C260.936 204.44 268.564 200.566 275.591 192.791H275.641Z" fill="#DDDFD0"/>
<path d="M441.146 197.838C441.146 202.238 442.721 205.088 445.873 206.338V206.663H392.93V206.338C396.081 204.663 397.657 201.813 397.657 197.838V6.64914C387.153 9.59897 377.55 15.5736 368.822 24.5981C360.094 33.6226 351.966 43.497 344.389 54.1964H343.139L350.391 1.89941H488.412L495.664 54.1964H494.414C486.861 43.497 478.708 33.6226 469.98 24.5981C461.253 15.5736 451.649 9.59897 441.146 6.64914V197.838Z" fill="#DDDFD0"/>
<path d="M614.253 186.191C618.23 197.115 621.506 203.84 624.032 206.34V206.665H572.665V206.04C572.665 203.74 572.239 201.215 571.414 198.49C570.564 195.766 569.689 193.191 568.738 190.766C567.788 188.366 567.113 186.416 566.688 184.941L549.032 137.069H509.969C509.544 154.293 510.594 170.242 513.12 184.941C513.745 188.291 515.321 195.141 517.846 205.415L518.171 206.665H465.854L466.479 204.765L541.779 1.92676H546.181L614.253 186.191ZM547.781 132.944L522.248 63.3232C515.321 84.947 511.319 108.171 510.269 132.944H547.756H547.781Z" fill="#DDDFD0"/>
<path d="M625.282 206.015L630.634 150.268C633.16 124.445 635.035 103.921 636.311 88.6967C637.561 73.4726 638.211 60.4984 638.211 49.799V26.8003L621.831 1.92676H675.073L767.404 132.644C766.354 118.145 765.303 105.671 764.253 95.1714C762.152 75.2225 758.951 58.1485 754.65 43.9743C750.348 29.8001 743.871 16.0009 735.268 2.55172V1.92676H786.635V2.55172C781.384 17.8758 777.382 33.6249 774.656 49.799C771.93 65.973 770.555 81.4972 770.555 96.4213C770.555 114.47 771.33 136.994 772.906 163.992C774.481 190.966 775.282 205.215 775.282 206.665H765.503L641.987 31.525V50.099C642.413 81.5971 644.863 108.896 649.39 131.994C653.916 155.093 662.369 179.766 674.748 206.015V206.64H625.282V206.015Z" fill="#DDDFD0"/>
<path d="M795.538 206.338C798.689 204.663 800.265 201.813 800.265 197.838V10.7239C800.265 6.52415 798.689 3.69931 795.538 2.2244V1.89941H848.481V2.2244C845.33 3.69931 843.754 6.52415 843.754 10.7239V197.813C843.754 202.213 845.33 205.063 848.481 206.313V206.638H795.538V206.313V206.338Z" fill="#DDDFD0"/>
<path d="M1004.76 217.362C1014.21 217.362 1025.96 216.837 1040.04 215.787L1024.61 262.085L905.199 195.939L906.15 196.264C891.245 187.664 879.366 175.265 870.538 159.091C861.71 142.917 857.309 124.443 857.309 103.644C857.309 82.8452 861.51 65.5212 869.913 49.7721C878.316 34.023 889.719 21.7987 904.099 13.0742C918.479 4.34975 934.184 0 951.215 0C968.245 0 983.925 4.34975 998.33 13.0742C1012.71 21.7987 1024.11 34.023 1032.52 49.7721C1040.92 65.5212 1045.12 83.4702 1045.12 103.644C1045.12 123.818 1040.87 141.867 1032.37 157.816C1023.86 173.765 1012.46 186.214 998.18 195.139C983.9 204.063 968.245 208.513 951.24 208.513C943.887 208.513 937.26 207.788 931.383 206.313C954.066 213.663 978.549 217.337 1004.81 217.337L1004.76 217.362ZM928.182 15.4491C921.255 22.9987 915.678 34.298 911.476 49.3221C907.275 64.3463 905.174 82.5452 905.174 103.969C905.174 125.393 907.275 143.092 911.476 158.316C915.678 173.54 921.305 185.039 928.332 192.814C935.359 200.588 942.987 204.463 951.165 204.463C959.342 204.463 966.97 200.588 973.997 192.814C981.024 185.039 986.651 173.54 990.853 158.316C995.054 143.092 997.155 124.993 997.155 103.969C997.155 82.9452 995.054 64.3463 990.853 49.3221C986.651 34.323 981.074 23.0237 974.147 15.4491C967.22 7.89954 959.542 4.09976 951.14 4.09976C942.737 4.09976 935.059 7.87454 928.132 15.4491H928.182Z" fill="#DDDFD0"/>
<path d="M1078.68 191.211C1063.55 179.661 1056 157.813 1056 125.689V10.7211C1056 6.52131 1054.42 3.69648 1051.27 2.22156V1.89658H1104.22V2.22156C1101.06 3.69648 1099.49 6.52131 1099.49 10.7211V134.189C1099.49 157.488 1102.84 174.312 1109.57 184.586C1116.29 194.885 1127.32 200.01 1142.65 200.01C1159.88 200.01 1172.59 193.335 1180.79 180.011C1188.99 166.687 1193.07 148.563 1193.07 125.689V52.9186C1193.07 40.7443 1192.07 31.1449 1190.07 24.0953C1188.07 17.0707 1185.87 12.171 1183.44 9.44614C1181.02 6.7213 1178.14 4.29644 1174.79 2.19656V1.87158H1215.43V2.19656C1212.08 4.29644 1209.18 6.7213 1206.77 9.44614C1204.35 12.171 1202.15 17.0707 1200.15 24.0953C1198.15 31.1199 1197.15 40.7443 1197.15 52.9186V125.689C1197.15 180.911 1176.34 208.535 1134.75 208.535C1112.49 208.535 1093.79 202.76 1078.66 191.211H1078.68Z" fill="#DDDFD0"/>
<path d="M1353.7 154.368L1360 206.34C1350.97 207.815 1337.84 208.54 1320.61 208.54C1298.98 208.54 1279.55 204.141 1262.32 195.316C1245.09 186.492 1231.53 174.117 1221.68 158.143C1211.8 142.194 1206.75 124.02 1206.55 103.646C1206.55 82.2226 1211.48 63.6987 1221.35 48.0496C1231.23 32.4005 1244.84 20.5012 1262.17 12.3016C1279.5 4.10211 1298.98 0.0273438 1320.61 0.0273438C1336.37 0.0273438 1349.5 0.877294 1360 2.5522L1353.7 54.1992H1352.45C1351.6 52.7243 1348.55 47.2246 1343.32 37.6752C1338.07 28.1257 1331.77 20.3512 1324.41 14.3765C1317.06 8.40186 1309.38 5.40203 1301.41 5.40203C1287.55 5.40203 1276.87 12.0766 1269.42 25.4009C1261.97 38.7251 1257.29 56.7491 1255.39 79.4227H1329.11V83.5225H1255.07C1254.64 92.347 1254.44 99.0716 1254.44 103.671C1254.44 133.92 1258.27 157.968 1265.94 175.792C1273.62 193.641 1285.33 202.566 1301.08 202.566C1309.28 202.566 1316.56 199.941 1322.99 194.691C1329.39 189.441 1334.22 184.342 1337.49 179.417C1340.74 174.492 1345.75 166.143 1352.47 154.368H1353.72H1353.7Z" fill="#DDDFD0"/>
</svg>
